<svg width="20" height="20" viewBox="0 0 20 20" fill="none" xmlns="http://www.w3.org/2000/svg">
<path d="M7.61009 19.375C7.50537 19.3751 7.40191 19.3522 7.30696 19.3081C7.21201 19.2639 7.12789 19.1995 7.06051 19.1193C6.99312 19.0392 6.94411 18.9452 6.91691 18.8441C6.8897 18.743 6.88498 18.6371 6.90306 18.534V18.5297L8.00111 12.5H3.74993C3.63193 12.5 3.51635 12.4666 3.41655 12.4036C3.31674 12.3407 3.2368 12.2507 3.18597 12.1442C3.13514 12.0378 3.11549 11.9191 3.12929 11.8019C3.1431 11.6847 3.1898 11.5738 3.264 11.482L11.8253 0.898432C11.9228 0.774731 12.0581 0.686351 12.2105 0.646809C12.3629 0.607267 12.5241 0.618738 12.6694 0.67947C12.8147 0.740201 12.9361 0.846848 13.015 0.983104C13.094 1.11936 13.1261 1.27772 13.1066 1.43398C13.1066 1.4457 13.1034 1.45703 13.1015 1.46874L11.9995 7.5H16.2499C16.3679 7.50001 16.4835 7.53343 16.5833 7.59638C16.6831 7.65934 16.7631 7.74926 16.8139 7.85575C16.8647 7.96224 16.8844 8.08094 16.8706 8.19813C16.8568 8.31532 16.8101 8.42621 16.7359 8.51797L8.17337 19.1016C8.10609 19.1866 8.0205 19.2553 7.92298 19.3026C7.82545 19.35 7.7185 19.3747 7.61009 19.375V19.375Z" fill="white"/>
</svg>
