<svg width="16" height="16" viewBox="0 0 16 16" fill="none" xmlns="http://www.w3.org/2000/svg">
<path d="M6.08807 15.5C6.0043 15.5001 5.92152 15.4818 5.84557 15.4465C5.76961 15.4111 5.70231 15.3596 5.64841 15.2955C5.5945 15.2313 5.55528 15.1562 5.53352 15.0753C5.51176 14.9944 5.50798 14.9097 5.52245 14.8272V14.8238L6.40088 10H2.99995C2.90555 9.99999 2.81308 9.97326 2.73324 9.92289C2.65339 9.87253 2.58944 9.80059 2.54878 9.7154C2.50811 9.63021 2.49239 9.53524 2.50344 9.44149C2.51448 9.34774 2.55184 9.25903 2.6112 9.18563L9.46026 0.718749C9.53822 0.619788 9.64645 0.549084 9.76839 0.51745C9.89033 0.485817 10.0193 0.494994 10.1355 0.543579C10.2518 0.592164 10.3489 0.677482 10.412 0.786487C10.4752 0.895491 10.5009 1.02218 10.4853 1.14719C10.4853 1.15656 10.4828 1.16562 10.4812 1.175L9.59963 6H12.9999C13.0943 6.00001 13.1868 6.02674 13.2667 6.07711C13.3465 6.12747 13.4105 6.19941 13.4511 6.2846C13.4918 6.3698 13.5075 6.46476 13.4965 6.55851C13.4854 6.65226 13.4481 6.74097 13.3887 6.81438L6.5387 15.2813C6.48487 15.3493 6.4164 15.4042 6.33838 15.4421C6.26036 15.48 6.1748 15.4998 6.08807 15.5V15.5Z" fill="white"/>
</svg>
