<svg width="18" height="18" viewBox="0 0 18 18" fill="none" xmlns="http://www.w3.org/2000/svg">
<path d="M6.84908 17.4375C6.75484 17.4376 6.66171 17.417 6.57626 17.3773C6.49081 17.3375 6.4151 17.2795 6.35446 17.2074C6.29381 17.1352 6.2497 17.0507 6.22521 16.9597C6.20073 16.8687 6.19648 16.7734 6.21275 16.6806V16.6767L7.20099 11.25H3.37494C3.26874 11.25 3.16471 11.2199 3.07489 11.1632C2.98507 11.1066 2.91312 11.0257 2.86737 10.9298C2.82162 10.834 2.80394 10.7271 2.81636 10.6217C2.82879 10.5162 2.87082 10.4164 2.9376 10.3338L10.6428 0.808583C10.7305 0.697252 10.8523 0.61771 10.9894 0.582122C11.1266 0.546534 11.2717 0.556859 11.4025 0.611517C11.5332 0.666174 11.6425 0.762158 11.7135 0.884788C11.7846 1.00742 11.8135 1.14995 11.7959 1.29058C11.7959 1.30112 11.7931 1.31132 11.7913 1.32186L10.7996 6.74999H14.6249C14.7311 6.75 14.8352 6.78008 14.925 6.83674C15.0148 6.8934 15.0868 6.97433 15.1325 7.07017C15.1783 7.16601 15.1959 7.27284 15.1835 7.37831C15.1711 7.48378 15.1291 7.58358 15.0623 7.66616L7.35603 17.1914C7.29548 17.2679 7.21845 17.3298 7.13068 17.3724C7.0429 17.415 6.94665 17.4372 6.84908 17.4375V17.4375Z" fill="white"/>
</svg>
