<svg class="logo" width="25" height="29" viewBox="0 0 25 29" fill="none" xmlns="http://www.w3.org/2000/svg">
  <path
  d="M14.1287 0H2.5431C1.86863 0 1.22177 0.268828 0.744856 0.747344C0.267932 1.22586 0 1.87487 0 2.55159V25.0757C0 25.7525 0.267932 26.4014 0.744856 26.8799C1.22177 27.3585 1.86863 27.6273 2.5431 27.6273C3.9063 27.6271 5.23213 27.1801 6.31906 26.3547C7.406 25.5292 8.1946 24.3703 8.565 23.054L10.483 16.225C10.498 16.1711 10.5003 16.1144 10.4898 16.0592C10.4793 16.0042 10.4562 15.9524 10.4223 15.908C10.3884 15.8633 10.3447 15.8273 10.2946 15.8026C10.2445 15.7778 10.1894 15.765 10.1336 15.7654H5.2648C5.20418 15.7661 5.14437 15.7515 5.09086 15.7229C5.03735 15.6943 4.99186 15.6527 4.95859 15.6019C4.92533 15.5511 4.90536 15.4926 4.90051 15.4321C4.89568 15.3714 4.90612 15.3106 4.93089 15.2551L9.41529 4.94347C9.4432 4.87885 9.4893 4.82381 9.5479 4.78506C9.60651 4.74632 9.67512 4.72556 9.7453 4.72531H15.3051C15.3655 4.72524 15.4248 4.74031 15.4777 4.76914C15.5307 4.79798 15.5757 4.83967 15.6086 4.89041C15.6413 4.94114 15.661 4.99931 15.6656 5.05961C15.6702 5.11992 15.6599 5.18043 15.6352 5.23564L12.9485 11.4179C12.9238 11.4731 12.9133 11.5336 12.918 11.5939C12.9226 11.6542 12.9423 11.7124 12.9751 11.7631C13.0079 11.8139 13.0529 11.8555 13.1058 11.8844C13.1588 11.9132 13.2182 11.9283 13.2785 11.9282H18.3492C18.4204 11.9278 18.4901 11.9486 18.5495 11.9879C18.609 12.0272 18.6556 12.0833 18.6835 12.1491C18.7113 12.2149 18.719 12.2875 18.7058 12.3577C18.6926 12.4279 18.659 12.4926 18.6093 12.5438L10.8713 20.5802C10.7713 20.6839 10.7042 20.8151 10.6786 20.9569C10.653 21.0989 10.6699 21.2453 10.7273 21.3776C10.7847 21.5098 10.8799 21.622 11.001 21.6999C11.122 21.7779 11.2633 21.8179 11.407 21.8152H14.1249C17.0081 21.8152 19.7732 20.666 21.812 18.6203C23.8507 16.5748 24.9961 13.8004 24.9961 10.9076C24.9961 8.01538 23.8513 5.24158 21.8133 3.19613C19.7755 1.15068 17.0113 0.00103293 14.1287 0Z"
  fill="url(#paint0_linear)" />
  <defs>
  <linearGradient id="paint0_linear" x1="1.25796" y1="20.4205" x2="20.023" y2="0.455901"
    gradientUnits="userSpaceOnUse">
    <stop stop-color="#03E8E8" />
    <stop offset="1" stop-color="#32EEA3" />
  </linearGradient>
  </defs>
</svg>