<svg width="16" height="16" viewBox="0 0 16 16" fill="none" xmlns="http://www.w3.org/2000/svg">
<circle cx="8" cy="8" r="8" fill="#F0F5FA"/>
<path d="M6.80504 12.6875C6.75269 12.6875 6.70095 12.6761 6.65348 12.654C6.60601 12.632 6.56395 12.5997 6.53025 12.5597C6.49656 12.5196 6.47205 12.4726 6.45845 12.4221C6.44485 12.3715 6.44249 12.3186 6.45153 12.267V12.2648L7.00055 9.25H4.87497C4.81597 9.24999 4.75817 9.23328 4.70827 9.20181C4.65837 9.17033 4.6184 9.12537 4.59298 9.07212C4.56757 9.01888 4.55774 8.95953 4.56465 8.90093C4.57155 8.84234 4.5949 8.78689 4.632 8.74101L8.91266 3.44922C8.96139 3.38737 9.02903 3.34318 9.10524 3.3234C9.18146 3.30363 9.26205 3.30937 9.3347 3.33973C9.40735 3.3701 9.46805 3.42342 9.50752 3.49155C9.547 3.55968 9.56307 3.63886 9.55329 3.71699C9.55329 3.72285 9.55172 3.72851 9.55075 3.73437L8.99977 6.75H11.125C11.184 6.75 11.2418 6.76671 11.2917 6.79819C11.3416 6.82967 11.3815 6.87463 11.4069 6.92788C11.4324 6.98112 11.4422 7.04047 11.4353 7.09907C11.4284 7.15766 11.405 7.2131 11.3679 7.25898L7.08669 12.5508C7.05305 12.5933 7.01025 12.6277 6.96149 12.6513C6.91272 12.675 6.85925 12.6874 6.80504 12.6875V12.6875Z" fill="#23282D"/>
</svg>
